<svg xmlns="http://www.w3.org/2000/svg" version="1.1" width="246.7mm" height="148.7mm" viewBox = " 0 0 874.1345769999999 526.890197" >
<!-- Front--> 
<g transform="translate(22.5000185, 22.5000185) " > 
<polygon style="stroke:#000000; fill:none; stroke-width:0.90000074" points="0, 0 38.0905825, 0 38.0905825, 14.17324 76.181165, 14.17324 76.181165, 0 104.52764499999999, 0 104.52764499999999, 14.17324 132.874125, 14.17324 132.874125, 0 161.22060499999998, 0 161.22060499999998, 14.17324 189.567085, 14.17324 189.567085, 0 217.91356499999998, 0 217.91356499999998, 14.17324 256.0041475, 14.17324 256.0041475, 0 294.09472999999997, 0 294.09472999999997, 38.97641 279.92148999999995, 38.97641 279.92148999999995, 77.95282 294.09472999999997, 77.95282 294.09472999999997, 106.2993 279.92148999999995, 106.2993 279.92148999999995, 134.64578 294.09472999999997, 134.64578 294.09472999999997, 162.99226 279.92148999999995, 162.99226 279.92148999999995, 201.96867 294.09472999999997, 201.96867 294.09472999999997, 240.94508 256.0041475, 240.94508 256.0041475, 226.77184 217.91356499999998, 226.77184 217.91356499999998, 240.94508 189.567085, 240.94508 189.567085, 226.77184 161.22060499999998, 226.77184 161.22060499999998, 240.94508 132.874125, 240.94508 132.874125, 226.77184 104.52764499999999, 226.77184 104.52764499999999, 240.94508 76.181165, 240.94508 76.181165, 226.77184 38.0905825, 226.77184 38.0905825, 240.94508 0, 240.94508000000002 0, 201.96867 14.17324, 201.96867 14.17324, 162.99226 0, 162.99226 0, 134.64578 14.17324, 134.64578 14.17324, 106.2993 0, 106.2993 0, 77.95282 14.17324, 77.95282 14.17324, 38.97641 0, 38.97641 "/> 
</g>
<!-- Back--> 
<g transform="translate(316.5947485, 22.5000185) " > 
<polygon style="stroke:#000000; fill:none; stroke-width:0.90000074" points="0, 0 38.0905825, 0 38.0905825, 14.17324 76.181165, 14.17324 76.181165, 0 104.52764499999999, 0 104.52764499999999, 14.17324 132.874125, 14.17324 132.874125, 0 161.22060499999998, 0 161.22060499999998, 14.17324 189.567085, 14.17324 189.567085, 0 217.91356499999998, 0 217.91356499999998, 14.17324 256.0041475, 14.17324 256.0041475, 0 294.09472999999997, 0 294.09472999999997, 38.97641 279.92148999999995, 38.97641 279.92148999999995, 77.95282 294.09472999999997, 77.95282 294.09472999999997, 106.2993 279.92148999999995, 106.2993 279.92148999999995, 134.64578 294.09472999999997, 134.64578 294.09472999999997, 162.99226 279.92148999999995, 162.99226 279.92148999999995, 201.96867 294.09472999999997, 201.96867 294.09472999999997, 240.94508 256.0041475, 240.94508 256.0041475, 226.77184 217.91356499999998, 226.77184 217.91356499999998, 240.94508 189.567085, 240.94508 189.567085, 226.77184 161.22060499999998, 226.77184 161.22060499999998, 240.94508 132.874125, 240.94508 132.874125, 226.77184 104.52764499999999, 226.77184 104.52764499999999, 240.94508 76.181165, 240.94508 76.181165, 226.77184 38.0905825, 226.77184 38.0905825, 240.94508 0, 240.94508000000002 0, 201.96867 14.17324, 201.96867 14.17324, 162.99226 0, 162.99226 0, 134.64578 14.17324, 134.64578 14.17324, 106.2993 0, 106.2993 0, 77.95282 14.17324, 77.95282 14.17324, 38.97641 0, 38.97641 "/> 
</g>
<!-- Left--> 
<g transform="translate(610.6894785, 22.5000185) " > 
<polygon style="stroke:#000000; fill:none; stroke-width:0.90000074" points="14.17324, 0 38.97641, 0 38.97641, 14.17324 77.95282, 14.17324 77.95282, 0 106.2993, 0 106.2993, 14.17324 134.64578, 14.17324 134.64578, 0 162.99226, 0 162.99226, 14.17324 201.96867, 14.17324 201.96867, 0 226.77184, 0 226.77184, 38.97641 240.94508, 38.97641 240.94508, 77.95282 226.77184, 77.95282 226.77184, 106.2993 240.94508, 106.2993 240.94508, 134.64578 226.77184, 134.64578 226.77184, 162.99226 240.94508, 162.99226 240.94508, 201.96867 226.77184, 201.96867 226.77184000000003, 240.94508 201.96867, 240.94508 201.96867, 226.77184 162.99226, 226.77184 162.99226, 240.94508 134.64578, 240.94508 134.64578, 226.77184 106.2993, 226.77184 106.2993, 240.94508 77.95282, 240.94508 77.95282, 226.77184 38.97641, 226.77184 38.97641, 240.94508 14.17324, 240.94508000000002 14.17324, 201.96867 0, 201.96867 0, 162.99226 14.17324, 162.99226 14.17324, 134.64578 0, 134.64578 0, 106.2993 14.17324, 106.2993 14.17324, 77.95282 0, 77.95282 0, 38.97641 14.17324, 38.97641 "/> 
</g>
<!-- Right--> 
<g transform="translate(610.6894785, 263.4450985) " > 
<polygon style="stroke:#000000; fill:none; stroke-width:0.90000074" points="14.17324, 0 38.97641, 0 38.97641, 14.17324 77.95282, 14.17324 77.95282, 0 106.2993, 0 106.2993, 14.17324 134.64578, 14.17324 134.64578, 0 162.99226, 0 162.99226, 14.17324 201.96867, 14.17324 201.96867, 0 226.77184, 0 226.77184, 38.97641 240.94508, 38.97641 240.94508, 77.95282 226.77184, 77.95282 226.77184, 106.2993 240.94508, 106.2993 240.94508, 134.64578 226.77184, 134.64578 226.77184, 162.99226 240.94508, 162.99226 240.94508, 201.96867 226.77184, 201.96867 226.77184000000003, 240.94508 201.96867, 240.94508 201.96867, 226.77184 162.99226, 226.77184 162.99226, 240.94508 134.64578, 240.94508 134.64578, 226.77184 106.2993, 226.77184 106.2993, 240.94508 77.95282, 240.94508 77.95282, 226.77184 38.97641, 226.77184 38.97641, 240.94508 14.17324, 240.94508000000002 14.17324, 201.96867 0, 201.96867 0, 162.99226 14.17324, 162.99226 14.17324, 134.64578 0, 134.64578 0, 106.2993 14.17324, 106.2993 14.17324, 77.95282 0, 77.95282 0, 38.97641 14.17324, 38.97641 "/> 
</g>
<!-- Top--> 
<g transform="translate(22.5000185, 263.4450985) " > 
<polygon style="stroke:#000000; fill:none; stroke-width:0.90000074" points="14.17324, 14.17324 38.0905825, 14.17324 38.0905825, 0 76.181165, 0 76.181165, 14.17324 104.52764499999999, 14.17324 104.52764499999999, 0 132.874125, 0 132.874125, 14.17324 161.22060499999998, 14.17324 161.22060499999998, 0 189.567085, 0 189.567085, 14.17324 217.91356499999998, 14.17324 217.91356499999998, 0 256.0041475, 0 256.0041475, 14.17324 279.92148999999995, 14.17324 279.92148999999995, 38.97641 294.09472999999997, 38.97641 294.09472999999997, 77.95282 279.92148999999995, 77.95282 279.92148999999995, 106.2993 294.09472999999997, 106.2993 294.09472999999997, 134.64578 279.92148999999995, 134.64578 279.92148999999995, 162.99226 294.09472999999997, 162.99226 294.09472999999997, 201.96867 279.92148999999995, 201.96867 279.92148999999995, 226.77184 256.0041475, 226.77184 256.0041475, 240.94508 217.91356499999998, 240.94508 217.91356499999998, 226.77184 189.567085, 226.77184 189.567085, 240.94508 161.22060499999998, 240.94508 161.22060499999998, 226.77184 132.874125, 226.77184 132.874125, 240.94508 104.52764499999999, 240.94508 104.52764499999999, 226.77184 76.181165, 226.77184 76.181165, 240.94508 38.0905825, 240.94508 38.0905825, 226.77184 14.17324, 226.77184000000003 14.17324, 201.96867 0, 201.96867 0, 162.99226 14.17324, 162.99226 14.17324, 134.64578 0, 134.64578 0, 106.2993 14.17324, 106.2993 14.17324, 77.95282 0, 77.95282 0, 38.97641 14.17324, 38.97641 "/> 
</g>
<!-- Bottom--> 
<g transform="translate(316.5947485, 263.4450985) " > 
<polygon style="stroke:#000000; fill:none; stroke-width:0.90000074" points="14.17324, 14.17324 38.0905825, 14.17324 38.0905825, 0 76.181165, 0 76.181165, 14.17324 104.52764499999999, 14.17324 104.52764499999999, 0 132.874125, 0 132.874125, 14.17324 161.22060499999998, 14.17324 161.22060499999998, 0 189.567085, 0 189.567085, 14.17324 217.91356499999998, 14.17324 217.91356499999998, 0 256.0041475, 0 256.0041475, 14.17324 279.92148999999995, 14.17324 279.92148999999995, 38.97641 294.09472999999997, 38.97641 294.09472999999997, 77.95282 279.92148999999995, 77.95282 279.92148999999995, 106.2993 294.09472999999997, 106.2993 294.09472999999997, 134.64578 279.92148999999995, 134.64578 279.92148999999995, 162.99226 294.09472999999997, 162.99226 294.09472999999997, 201.96867 279.92148999999995, 201.96867 279.92148999999995, 226.77184 256.0041475, 226.77184 256.0041475, 240.94508 217.91356499999998, 240.94508 217.91356499999998, 226.77184 189.567085, 226.77184 189.567085, 240.94508 161.22060499999998, 240.94508 161.22060499999998, 226.77184 132.874125, 226.77184 132.874125, 240.94508 104.52764499999999, 240.94508 104.52764499999999, 226.77184 76.181165, 226.77184 76.181165, 240.94508 38.0905825, 240.94508 38.0905825, 226.77184 14.17324, 226.77184000000003 14.17324, 201.96867 0, 201.96867 0, 162.99226 14.17324, 162.99226 14.17324, 134.64578 0, 134.64578 0, 106.2993 14.17324, 106.2993 14.17324, 77.95282 0, 77.95282 0, 38.97641 14.17324, 38.97641 "/> 
</g></svg>