<svg xmlns="http://www.w3.org/2000/svg" version="1.1" width="246.7mm" height="148.7mm" viewBox = " 0 0 874.1345769999999 526.890197" >
<!-- Front--> 
<g transform="translate(22.5000185, 22.5000185) " > 
<polygon style="stroke:#ff0000; fill:none; stroke-width:0.90000074" points="0, 0 38.267748, 0 38.267748, 14.17324 76.181165, 14.17324 76.181165, 0 104.7048105, 0 104.7048105, 14.17324 132.874125, 14.17324 132.874125, 0 161.39777049999998, 0 161.39777049999998, 14.17324 189.567085, 14.17324 189.567085, 0 218.09073049999998, 0 218.09073049999998, 14.17324 256.0041475, 14.17324 256.0041475, 0 294.27189549999997, 0 294.27189549999997, 39.1535755 280.09865549999995, 39.1535755 280.09865549999995, 77.95282 294.27189549999997, 77.95282 294.27189549999997, 106.4764655 280.09865549999995, 106.4764655 280.09865549999995, 134.64578 294.27189549999997, 134.64578 294.27189549999997, 163.1694255 280.09865549999995, 163.1694255 280.09865549999995, 201.96867 294.27189549999997, 201.96867 294.27189549999997, 241.1222455 256.0041475, 241.1222455 256.0041475, 226.9490055 218.09073049999998, 226.9490055 218.09073049999998, 241.1222455 189.567085, 241.1222455 189.567085, 226.9490055 161.39777049999998, 226.9490055 161.39777049999998, 241.1222455 132.874125, 241.1222455 132.874125, 226.9490055 104.7048105, 226.9490055 104.7048105, 241.1222455 76.181165, 241.1222455 76.181165, 226.9490055 38.267748, 226.9490055 38.267748, 241.1222455 0, 241.12224550000002 0, 201.96867 14.17324, 201.96867 14.17324, 163.1694255 0, 163.1694255 0, 134.64578 14.17324, 134.64578 14.17324, 106.4764655 0, 106.4764655 0, 77.95282 14.17324, 77.95282 14.17324, 39.1535755 0, 39.1535755 "/> 
</g>
<!-- Back--> 
<g transform="translate(316.771914, 22.5000185) " > 
<polygon style="stroke:#ff0000; fill:none; stroke-width:0.90000074" points="0, 0 38.267748, 0 38.267748, 14.17324 76.181165, 14.17324 76.181165, 0 104.7048105, 0 104.7048105, 14.17324 132.874125, 14.17324 132.874125, 0 161.39777049999998, 0 161.39777049999998, 14.17324 189.567085, 14.17324 189.567085, 0 218.09073049999998, 0 218.09073049999998, 14.17324 256.0041475, 14.17324 256.0041475, 0 294.27189549999997, 0 294.27189549999997, 39.1535755 280.09865549999995, 39.1535755 280.09865549999995, 77.95282 294.27189549999997, 77.95282 294.27189549999997, 106.4764655 280.09865549999995, 106.4764655 280.09865549999995, 134.64578 294.27189549999997, 134.64578 294.27189549999997, 163.1694255 280.09865549999995, 163.1694255 280.09865549999995, 201.96867 294.27189549999997, 201.96867 294.27189549999997, 241.1222455 256.0041475, 241.1222455 256.0041475, 226.9490055 218.09073049999998, 226.9490055 218.09073049999998, 241.1222455 189.567085, 241.1222455 189.567085, 226.9490055 161.39777049999998, 226.9490055 161.39777049999998, 241.1222455 132.874125, 241.1222455 132.874125, 226.9490055 104.7048105, 226.9490055 104.7048105, 241.1222455 76.181165, 241.1222455 76.181165, 226.9490055 38.267748, 226.9490055 38.267748, 241.1222455 0, 241.12224550000002 0, 201.96867 14.17324, 201.96867 14.17324, 163.1694255 0, 163.1694255 0, 134.64578 14.17324, 134.64578 14.17324, 106.4764655 0, 106.4764655 0, 77.95282 14.17324, 77.95282 14.17324, 39.1535755 0, 39.1535755 "/> 
</g>
<!-- Left--> 
<g transform="translate(611.0438095, 22.5000185) " > 
<polygon style="stroke:#ff0000; fill:none; stroke-width:0.90000074" points="14.17324, 0 39.1535755, 0 39.1535755, 14.17324 77.95282, 14.17324 77.95282, 0 106.4764655, 0 106.4764655, 14.17324 134.64578, 14.17324 134.64578, 0 163.1694255, 0 163.1694255, 14.17324 201.96867, 14.17324 201.96867, 0 226.9490055, 0 226.9490055, 38.97641 241.1222455, 38.97641 241.1222455, 78.1299855 226.9490055, 78.1299855 226.9490055, 106.2993 241.1222455, 106.2993 241.1222455, 134.8229455 226.9490055, 134.8229455 226.9490055, 162.99226 241.1222455, 162.99226 241.1222455, 202.1458355 226.9490055, 202.1458355 226.94900550000003, 241.1222455 201.96867, 241.1222455 201.96867, 226.9490055 163.1694255, 226.9490055 163.1694255, 241.1222455 134.64578, 241.1222455 134.64578, 226.9490055 106.4764655, 226.9490055 106.4764655, 241.1222455 77.95282, 241.1222455 77.95282, 226.9490055 39.1535755, 226.9490055 39.1535755, 241.1222455 14.17324, 241.12224550000002 14.17324, 202.1458355 0, 202.1458355 0, 162.99226 14.17324, 162.99226 14.17324, 134.8229455 0, 134.8229455 0, 106.2993 14.17324, 106.2993 14.17324, 78.1299855 0, 78.1299855 0, 38.97641 14.17324, 38.97641 "/> 
</g>
<!-- Right--> 
<g transform="translate(611.0438095, 263.622264) " > 
<polygon style="stroke:#ff0000; fill:none; stroke-width:0.90000074" points="14.17324, 0 39.1535755, 0 39.1535755, 14.17324 77.95282, 14.17324 77.95282, 0 106.4764655, 0 106.4764655, 14.17324 134.64578, 14.17324 134.64578, 0 163.1694255, 0 163.1694255, 14.17324 201.96867, 14.17324 201.96867, 0 226.9490055, 0 226.9490055, 38.97641 241.1222455, 38.97641 241.1222455, 78.1299855 226.9490055, 78.1299855 226.9490055, 106.2993 241.1222455, 106.2993 241.1222455, 134.8229455 226.9490055, 134.8229455 226.9490055, 162.99226 241.1222455, 162.99226 241.1222455, 202.1458355 226.9490055, 202.1458355 226.94900550000003, 241.1222455 201.96867, 241.1222455 201.96867, 226.9490055 163.1694255, 226.9490055 163.1694255, 241.1222455 134.64578, 241.1222455 134.64578, 226.9490055 106.4764655, 226.9490055 106.4764655, 241.1222455 77.95282, 241.1222455 77.95282, 226.9490055 39.1535755, 226.9490055 39.1535755, 241.1222455 14.17324, 241.12224550000002 14.17324, 202.1458355 0, 202.1458355 0, 162.99226 14.17324, 162.99226 14.17324, 134.8229455 0, 134.8229455 0, 106.2993 14.17324, 106.2993 14.17324, 78.1299855 0, 78.1299855 0, 38.97641 14.17324, 38.97641 "/> 
</g>
<!-- Top--> 
<g transform="translate(22.5000185, 263.622264) " > 
<polygon style="stroke:#ff0000; fill:none; stroke-width:0.90000074" points="14.17324, 14.17324 38.0905825, 14.17324 38.0905825, 0 76.3583305, 0 76.3583305, 14.17324 104.52764499999999, 14.17324 104.52764499999999, 0 133.0512905, 0 133.0512905, 14.17324 161.22060499999998, 14.17324 161.22060499999998, 0 189.7442505, 0 189.7442505, 14.17324 217.91356499999998, 14.17324 217.91356499999998, 0 256.181313, 0 256.181313, 14.17324 280.09865549999995, 14.17324 280.09865549999995, 38.97641 294.27189549999997, 38.97641 294.27189549999997, 78.1299855 280.09865549999995, 78.1299855 280.09865549999995, 106.2993 294.27189549999997, 106.2993 294.27189549999997, 134.8229455 280.09865549999995, 134.8229455 280.09865549999995, 162.99226 294.27189549999997, 162.99226 294.27189549999997, 202.1458355 280.09865549999995, 202.1458355 280.09865549999995, 226.9490055 256.181313, 226.9490055 256.181313, 241.1222455 217.91356499999998, 241.1222455 217.91356499999998, 226.9490055 189.7442505, 226.9490055 189.7442505, 241.1222455 161.22060499999998, 241.1222455 161.22060499999998, 226.9490055 133.0512905, 226.9490055 133.0512905, 241.1222455 104.52764499999999, 241.1222455 104.52764499999999, 226.9490055 76.3583305, 226.9490055 76.3583305, 241.1222455 38.0905825, 241.1222455 38.0905825, 226.9490055 14.17324, 226.94900550000003 14.17324, 202.1458355 0, 202.1458355 0, 162.99226 14.17324, 162.99226 14.17324, 134.8229455 0, 134.8229455 0, 106.2993 14.17324, 106.2993 14.17324, 78.1299855 0, 78.1299855 0, 38.97641 14.17324, 38.97641 "/> 
</g>
<!-- Bottom--> 
<g transform="translate(316.771914, 263.622264) " > 
<polygon style="stroke:#ff0000; fill:none; stroke-width:0.90000074" points="14.17324, 14.17324 38.0905825, 14.17324 38.0905825, 0 76.3583305, 0 76.3583305, 14.17324 104.52764499999999, 14.17324 104.52764499999999, 0 133.0512905, 0 133.0512905, 14.17324 161.22060499999998, 14.17324 161.22060499999998, 0 189.7442505, 0 189.7442505, 14.17324 217.91356499999998, 14.17324 217.91356499999998, 0 256.181313, 0 256.181313, 14.17324 280.09865549999995, 14.17324 280.09865549999995, 38.97641 294.27189549999997, 38.97641 294.27189549999997, 78.1299855 280.09865549999995, 78.1299855 280.09865549999995, 106.2993 294.27189549999997, 106.2993 294.27189549999997, 134.8229455 280.09865549999995, 134.8229455 280.09865549999995, 162.99226 294.27189549999997, 162.99226 294.27189549999997, 202.1458355 280.09865549999995, 202.1458355 280.09865549999995, 226.9490055 256.181313, 226.9490055 256.181313, 241.1222455 217.91356499999998, 241.1222455 217.91356499999998, 226.9490055 189.7442505, 226.9490055 189.7442505, 241.1222455 161.22060499999998, 241.1222455 161.22060499999998, 226.9490055 133.0512905, 226.9490055 133.0512905, 241.1222455 104.52764499999999, 241.1222455 104.52764499999999, 226.9490055 76.3583305, 226.9490055 76.3583305, 241.1222455 38.0905825, 241.1222455 38.0905825, 226.9490055 14.17324, 226.94900550000003 14.17324, 202.1458355 0, 202.1458355 0, 162.99226 14.17324, 162.99226 14.17324, 134.8229455 0, 134.8229455 0, 106.2993 14.17324, 106.2993 14.17324, 78.1299855 0, 78.1299855 0, 38.97641 14.17324, 38.97641 "/> 
</g></svg>