<svg xmlns="http://www.w3.org/2000/svg" version="1.1" width="271.7mm" height="170.7mm" viewBox = " 0 0 962.717327 604.8430169999999" >
<!-- Front--> 
<g transform="translate(22.5000185, 22.5000185) " > 
<polygon style="stroke:#ff0000; fill:none; stroke-width:0.0354331" points="0, 0 38.0905825, 0 38.0905825, 14.17324 69.094545, 14.17324 69.094545, 0 97.44102500000001, 0 97.44102500000001, 14.17324 118.700885, 14.17324 118.700885, 0 147.04736499999999, 0 147.04736499999999, 14.17324 168.30722500000002, 14.17324 168.30722500000002, 0 196.65370499999997, 0 196.65370499999997, 14.17324 217.913565, 14.17324 217.913565, 0 246.26004500000002, 0 246.26004500000002, 14.17324 277.26400750000005, 14.17324 277.26400750000005, 0 315.35459, 0 315.35459, 38.976409999999994 301.18134999999995, 38.976409999999994 301.18134999999995, 70.86619999999999 315.35459, 70.86619999999999 315.35459, 99.21267999999999 301.18134999999995, 99.21267999999999 301.18134999999995, 120.47254 315.35459, 120.47254 315.35459, 148.81902 301.18134999999995, 148.81902 301.18134999999995, 170.07888 315.35459, 170.07888 315.35459, 198.42535999999998 301.18134999999995, 198.42535999999998 301.18134999999995, 230.31515 315.35459, 230.31515 315.35459000000003, 269.29156 277.26400750000005, 269.29156 277.26400750000005, 255.11832 246.26004500000002, 255.11832 246.26004500000002, 269.29156 217.913565, 269.29156 217.913565, 255.11832 196.65370499999997, 255.11832 196.65370499999997, 269.29156 168.30722500000002, 269.29156 168.30722500000002, 255.11832 147.04736499999999, 255.11832 147.04736499999999, 269.29156 118.700885, 269.29156 118.700885, 255.11832 97.44102500000001, 255.11832 97.44102500000001, 269.29156 69.094545, 269.29156 69.094545, 255.11832 38.0905825, 255.11832 38.0905825, 269.29156 0, 269.29156 0, 230.31515 14.17324, 230.31515 14.17324, 198.42535999999998 0, 198.42535999999998 0, 170.07888 14.17324, 170.07888 14.17324, 148.81902 0, 148.81902 0, 120.47254 14.17324, 120.47254 14.17324, 99.21267999999999 0, 99.21267999999999 0, 70.86619999999999 14.17324, 70.86619999999999 14.17324, 38.976409999999994 0, 38.976409999999994 "/> 
</g>
<!-- Back--> 
<g transform="translate(337.8546085, 22.5000185) " > 
<polygon style="stroke:#ff0000; fill:none; stroke-width:0.0354331" points="0, 0 38.0905825, 0 38.0905825, 14.17324 69.094545, 14.17324 69.094545, 0 97.44102500000001, 0 97.44102500000001, 14.17324 118.700885, 14.17324 118.700885, 0 147.04736499999999, 0 147.04736499999999, 14.17324 168.30722500000002, 14.17324 168.30722500000002, 0 196.65370499999997, 0 196.65370499999997, 14.17324 217.913565, 14.17324 217.913565, 0 246.26004500000002, 0 246.26004500000002, 14.17324 277.26400750000005, 14.17324 277.26400750000005, 0 315.35459, 0 315.35459, 38.976409999999994 301.18134999999995, 38.976409999999994 301.18134999999995, 70.86619999999999 315.35459, 70.86619999999999 315.35459, 99.21267999999999 301.18134999999995, 99.21267999999999 301.18134999999995, 120.47254 315.35459, 120.47254 315.35459, 148.81902 301.18134999999995, 148.81902 301.18134999999995, 170.07888 315.35459, 170.07888 315.35459, 198.42535999999998 301.18134999999995, 198.42535999999998 301.18134999999995, 230.31515 315.35459, 230.31515 315.35459000000003, 269.29156 277.26400750000005, 269.29156 277.26400750000005, 255.11832 246.26004500000002, 255.11832 246.26004500000002, 269.29156 217.913565, 269.29156 217.913565, 255.11832 196.65370499999997, 255.11832 196.65370499999997, 269.29156 168.30722500000002, 269.29156 168.30722500000002, 255.11832 147.04736499999999, 255.11832 147.04736499999999, 269.29156 118.700885, 269.29156 118.700885, 255.11832 97.44102500000001, 255.11832 97.44102500000001, 269.29156 69.094545, 269.29156 69.094545, 255.11832 38.0905825, 255.11832 38.0905825, 269.29156 0, 269.29156 0, 230.31515 14.17324, 230.31515 14.17324, 198.42535999999998 0, 198.42535999999998 0, 170.07888 14.17324, 170.07888 14.17324, 148.81902 0, 148.81902 0, 120.47254 14.17324, 120.47254 14.17324, 99.21267999999999 0, 99.21267999999999 0, 70.86619999999999 14.17324, 70.86619999999999 14.17324, 38.976409999999994 0, 38.976409999999994 "/> 
</g>
<!-- Left--> 
<g transform="translate(653.2091985, 22.5000185) " > 
<polygon style="stroke:#ff0000; fill:none; stroke-width:0.0354331" points="14.17324, 0 46.06303, 0 46.06303, 14.17324 85.03944, 14.17324 85.03944, 0 113.38592000000001, 0 113.38592000000001, 14.17324 134.64578, 14.17324 134.64578, 0 162.99226000000002, 0 162.99226000000002, 14.17324 184.25212, 14.17324 184.25212, 0 212.5986, 0 212.5986, 14.17324 251.57501, 14.17324 251.57501, 0 283.46479999999997, 0 283.46479999999997, 35.433099999999996 297.63804, 35.433099999999996 297.63804, 74.40951 283.46479999999997, 74.40951 283.46479999999997, 95.66936999999999 297.63804, 95.66936999999999 297.63804, 124.01585 283.46479999999997, 124.01585 283.46479999999997, 145.27571 297.63804, 145.27571 297.63804, 173.62219 283.46479999999997, 173.62219 283.46479999999997, 194.88205 297.63804, 194.88205 297.63804, 233.85845999999998 283.46479999999997, 233.85845999999998 283.4648, 269.29156 251.57501, 269.29156 251.57501, 255.11832 212.5986, 255.11832 212.5986, 269.29156 184.25212, 269.29156 184.25212, 255.11832 162.99226000000002, 255.11832 162.99226000000002, 269.29156 134.64578, 269.29156 134.64578, 255.11832 113.38592000000001, 255.11832 113.38592000000001, 269.29156 85.03944, 269.29156 85.03944, 255.11832 46.06303, 255.11832 46.06303, 269.29156 14.17324, 269.29156 14.17324, 233.85845999999998 0, 233.85845999999998 0, 194.88205 14.17324, 194.88205 14.17324, 173.62219 0, 173.62219 0, 145.27571 14.17324, 145.27571 14.17324, 124.01585 0, 124.01585 0, 95.66936999999999 14.17324, 95.66936999999999 14.17324, 74.40951 0, 74.40951 0, 35.433099999999996 14.17324, 35.433099999999996 "/> 
</g>
<!-- Right--> 
<g transform="translate(653.2091985, 291.79157849999996) " > 
<polygon style="stroke:#ff0000; fill:none; stroke-width:0.0354331" points="14.17324, 0 46.06303, 0 46.06303, 14.17324 85.03944, 14.17324 85.03944, 0 113.38592000000001, 0 113.38592000000001, 14.17324 134.64578, 14.17324 134.64578, 0 162.99226000000002, 0 162.99226000000002, 14.17324 184.25212, 14.17324 184.25212, 0 212.5986, 0 212.5986, 14.17324 251.57501, 14.17324 251.57501, 0 283.46479999999997, 0 283.46479999999997, 35.433099999999996 297.63804, 35.433099999999996 297.63804, 74.40951 283.46479999999997, 74.40951 283.46479999999997, 95.66936999999999 297.63804, 95.66936999999999 297.63804, 124.01585 283.46479999999997, 124.01585 283.46479999999997, 145.27571 297.63804, 145.27571 297.63804, 173.62219 283.46479999999997, 173.62219 283.46479999999997, 194.88205 297.63804, 194.88205 297.63804, 233.85845999999998 283.46479999999997, 233.85845999999998 283.4648, 269.29156 251.57501, 269.29156 251.57501, 255.11832 212.5986, 255.11832 212.5986, 269.29156 184.25212, 269.29156 184.25212, 255.11832 162.99226000000002, 255.11832 162.99226000000002, 269.29156 134.64578, 269.29156 134.64578, 255.11832 113.38592000000001, 255.11832 113.38592000000001, 269.29156 85.03944, 269.29156 85.03944, 255.11832 46.06303, 255.11832 46.06303, 269.29156 14.17324, 269.29156 14.17324, 233.85845999999998 0, 233.85845999999998 0, 194.88205 14.17324, 194.88205 14.17324, 173.62219 0, 173.62219 0, 145.27571 14.17324, 145.27571 14.17324, 124.01585 0, 124.01585 0, 95.66936999999999 14.17324, 95.66936999999999 14.17324, 74.40951 0, 74.40951 0, 35.433099999999996 14.17324, 35.433099999999996 "/> 
</g>
<!-- Top--> 
<g transform="translate(22.5000185, 291.79157849999996) " > 
<polygon style="stroke:#ff0000; fill:none; stroke-width:0.0354331" points="14.17324, 14.17324 34.5472725, 14.17324 34.5472725, 0 72.637855, 0 72.637855, 14.17324 93.897715, 14.17324 93.897715, 0 122.244195, 0 122.244195, 14.17324 143.504055, 14.17324 143.504055, 0 171.850535, 0 171.850535, 14.17324 193.11039499999998, 14.17324 193.11039499999998, 0 221.456875, 0 221.456875, 14.17324 242.71673500000003, 14.17324 242.71673500000003, 0 280.80731750000007, 0 280.80731750000007, 14.17324 301.18134999999995, 14.17324 301.18134999999995, 42.51972 315.35459, 42.51972 315.35459, 88.58275 301.18134999999995, 88.58275 301.18134999999995, 109.84261000000001 315.35459, 109.84261000000001 315.35459, 138.18909 301.18134999999995, 138.18909 301.18134999999995, 159.44895000000002 315.35459, 159.44895000000002 315.35459, 187.79542999999998 301.18134999999995, 187.79542999999998 301.18134999999995, 209.05529 315.35459, 209.05529 315.35459, 255.11831999999998 301.18134999999995, 255.11831999999998 301.18135, 283.46479999999997 280.80731750000007, 283.46479999999997 280.80731750000007, 297.63804 242.71673500000003, 297.63804 242.71673500000003, 283.46479999999997 221.456875, 283.46479999999997 221.456875, 297.63804 193.11039499999998, 297.63804 193.11039499999998, 283.46479999999997 171.850535, 283.46479999999997 171.850535, 297.63804 143.504055, 297.63804 143.504055, 283.46479999999997 122.244195, 283.46479999999997 122.244195, 297.63804 93.897715, 297.63804 93.897715, 283.46479999999997 72.637855, 283.46479999999997 72.637855, 297.63804 34.5472725, 297.63804 34.5472725, 283.46479999999997 14.17324, 283.4648 14.17324, 255.11831999999998 0, 255.11831999999998 0, 209.05529 14.17324, 209.05529 14.17324, 187.79542999999998 0, 187.79542999999998 0, 159.44895000000002 14.17324, 159.44895000000002 14.17324, 138.18909 0, 138.18909 0, 109.84261000000001 14.17324, 109.84261000000001 14.17324, 88.58275 0, 88.58275 0, 42.51972 14.17324, 42.51972 "/> 
</g>
<!-- Bottom--> 
<g transform="translate(337.8546085, 291.79157849999996) " > 
<polygon style="stroke:#ff0000; fill:none; stroke-width:0.0354331" points="14.17324, 14.17324 34.5472725, 14.17324 34.5472725, 0 72.637855, 0 72.637855, 14.17324 93.897715, 14.17324 93.897715, 0 122.244195, 0 122.244195, 14.17324 143.504055, 14.17324 143.504055, 0 171.850535, 0 171.850535, 14.17324 193.11039499999998, 14.17324 193.11039499999998, 0 221.456875, 0 221.456875, 14.17324 242.71673500000003, 14.17324 242.71673500000003, 0 280.80731750000007, 0 280.80731750000007, 14.17324 301.18134999999995, 14.17324 301.18134999999995, 42.51972 315.35459, 42.51972 315.35459, 88.58275 301.18134999999995, 88.58275 301.18134999999995, 109.84261000000001 315.35459, 109.84261000000001 315.35459, 138.18909 301.18134999999995, 138.18909 301.18134999999995, 159.44895000000002 315.35459, 159.44895000000002 315.35459, 187.79542999999998 301.18134999999995, 187.79542999999998 301.18134999999995, 209.05529 315.35459, 209.05529 315.35459, 255.11831999999998 301.18134999999995, 255.11831999999998 301.18135, 283.46479999999997 280.80731750000007, 283.46479999999997 280.80731750000007, 297.63804 242.71673500000003, 297.63804 242.71673500000003, 283.46479999999997 221.456875, 283.46479999999997 221.456875, 297.63804 193.11039499999998, 297.63804 193.11039499999998, 283.46479999999997 171.850535, 283.46479999999997 171.850535, 297.63804 143.504055, 297.63804 143.504055, 283.46479999999997 122.244195, 283.46479999999997 122.244195, 297.63804 93.897715, 297.63804 93.897715, 283.46479999999997 72.637855, 283.46479999999997 72.637855, 297.63804 34.5472725, 297.63804 34.5472725, 283.46479999999997 14.17324, 283.4648 14.17324, 255.11831999999998 0, 255.11831999999998 0, 209.05529 14.17324, 209.05529 14.17324, 187.79542999999998 0, 187.79542999999998 0, 159.44895000000002 14.17324, 159.44895000000002 14.17324, 138.18909 0, 138.18909 0, 109.84261000000001 14.17324, 109.84261000000001 14.17324, 88.58275 0, 88.58275 0, 42.51972 14.17324, 42.51972 "/> 
</g></svg>