<svg xmlns="http://www.w3.org/2000/svg" version="1.1" width="271.7mm" height="170.7mm" viewBox = " 0 0 962.717327 604.8430169999999" >
<!-- Front--> 
<g transform="translate(22.5000185, 22.5000185) " > 
<polygon style="stroke:#000000; fill:none; stroke-width:0.90000074" points="0, 0 30.118135, 0 30.118135, 10.62993 60.23627, 10.62993 60.23627, 0 81.49613, 0 81.49613, 10.62993 102.75599, 10.62993 102.75599, 0 124.01585, 0 124.01585, 10.62993 145.27571, 10.62993 145.27571, 0 166.53557, 0 166.53557, 10.62993 187.79542999999998, 10.62993 187.79542999999998, 0 209.05528999999999, 0 209.05528999999999, 10.62993 230.31515, 10.62993 230.31515, 0 251.57501, 0 251.57501, 10.62993 281.693145, 10.62993 281.693145, 0 311.81128, 0 311.81128, 29.2323075 301.18135, 29.2323075 301.18135, 58.464615 311.81128, 58.464615 311.81128, 79.724475 301.18135, 79.724475 301.18135, 100.984335 311.81128, 100.984335 311.81128, 122.24419499999999 301.18135, 122.24419499999999 301.18135, 143.504055 311.81128, 143.504055 311.81128, 164.763915 301.18135, 164.763915 301.18135, 186.023775 311.81128, 186.023775 311.81128, 207.283635 301.18135, 207.283635 301.18135, 236.5159425 311.81128, 236.5159425 311.81128, 265.74825 281.693145, 265.74825 281.693145, 255.11831999999998 251.57501, 255.11831999999998 251.57501, 265.74825 230.31515, 265.74825 230.31515, 255.11831999999998 209.05528999999999, 255.11831999999998 209.05528999999999, 265.74825 187.79542999999998, 265.74825 187.79542999999998, 255.11831999999998 166.53557, 255.11831999999998 166.53557, 265.74825 145.27571, 265.74825 145.27571, 255.11831999999998 124.01585, 255.11831999999998 124.01585, 265.74825 102.75599, 265.74825 102.75599, 255.11831999999998 81.49613, 255.11831999999998 81.49613, 265.74825 60.23627, 265.74825 60.23627, 255.11831999999998 30.118135, 255.11831999999998 30.118135, 265.74825 0, 265.74825 0, 236.5159425 10.62993, 236.5159425 10.62993, 207.283635 0, 207.283635 0, 186.023775 10.62993, 186.023775 10.62993, 164.763915 0, 164.763915 0, 143.504055 10.62993, 143.504055 10.62993, 122.24419499999999 0, 122.24419499999999 0, 100.984335 10.62993, 100.984335 10.62993, 79.724475 0, 79.724475 0, 58.464615 10.62993, 58.464615 10.62993, 29.2323075 0, 29.2323075 "/> 
</g>
<!-- Back--> 
<g transform="translate(334.31129849999996, 22.5000185) " > 
<polygon style="stroke:#000000; fill:none; stroke-width:0.90000074" points="0, 0 30.118135, 0 30.118135, 10.62993 60.23627, 10.62993 60.23627, 0 81.49613, 0 81.49613, 10.62993 102.75599, 10.62993 102.75599, 0 124.01585, 0 124.01585, 10.62993 145.27571, 10.62993 145.27571, 0 166.53557, 0 166.53557, 10.62993 187.79542999999998, 10.62993 187.79542999999998, 0 209.05528999999999, 0 209.05528999999999, 10.62993 230.31515, 10.62993 230.31515, 0 251.57501, 0 251.57501, 10.62993 281.693145, 10.62993 281.693145, 0 311.81128, 0 311.81128, 29.2323075 301.18135, 29.2323075 301.18135, 58.464615 311.81128, 58.464615 311.81128, 79.724475 301.18135, 79.724475 301.18135, 100.984335 311.81128, 100.984335 311.81128, 122.24419499999999 301.18135, 122.24419499999999 301.18135, 143.504055 311.81128, 143.504055 311.81128, 164.763915 301.18135, 164.763915 301.18135, 186.023775 311.81128, 186.023775 311.81128, 207.283635 301.18135, 207.283635 301.18135, 236.5159425 311.81128, 236.5159425 311.81128, 265.74825 281.693145, 265.74825 281.693145, 255.11831999999998 251.57501, 255.11831999999998 251.57501, 265.74825 230.31515, 265.74825 230.31515, 255.11831999999998 209.05528999999999, 255.11831999999998 209.05528999999999, 265.74825 187.79542999999998, 265.74825 187.79542999999998, 255.11831999999998 166.53557, 255.11831999999998 166.53557, 265.74825 145.27571, 265.74825 145.27571, 255.11831999999998 124.01585, 255.11831999999998 124.01585, 265.74825 102.75599, 265.74825 102.75599, 255.11831999999998 81.49613, 255.11831999999998 81.49613, 265.74825 60.23627, 265.74825 60.23627, 255.11831999999998 30.118135, 255.11831999999998 30.118135, 265.74825 0, 265.74825 0, 236.5159425 10.62993, 236.5159425 10.62993, 207.283635 0, 207.283635 0, 186.023775 10.62993, 186.023775 10.62993, 164.763915 0, 164.763915 0, 143.504055 10.62993, 143.504055 10.62993, 122.24419499999999 0, 122.24419499999999 0, 100.984335 10.62993, 100.984335 10.62993, 79.724475 0, 79.724475 0, 58.464615 10.62993, 58.464615 10.62993, 29.2323075 0, 29.2323075 "/> 
</g>
<!-- Left--> 
<g transform="translate(646.1225784999999, 22.5000185) " > 
<polygon style="stroke:#000000; fill:none; stroke-width:0.90000074" points="10.62993, 0 36.3189275, 0 36.3189275, 10.62993 72.637855, 10.62993 72.637855, 0 93.897715, 0 93.897715, 10.62993 115.15757500000001, 10.62993 115.15757500000001, 0 136.417435, 0 136.417435, 10.62993 157.67729500000002, 10.62993 157.67729500000002, 0 178.93715500000002, 0 178.93715500000002, 10.62993 200.197015, 10.62993 200.197015, 0 221.456875, 0 221.456875, 10.62993 257.7758025, 10.62993 257.7758025, 0 283.46479999999997, 0 283.46479999999997, 29.2323075 294.09472999999997, 29.2323075 294.09472999999997, 58.464615 283.46479999999997, 58.464615 283.46479999999997, 79.724475 294.09472999999997, 79.724475 294.09472999999997, 100.984335 283.46479999999997, 100.984335 283.46479999999997, 122.24419499999999 294.09472999999997, 122.24419499999999 294.09472999999997, 143.504055 283.46479999999997, 143.504055 283.46479999999997, 164.763915 294.09472999999997, 164.763915 294.09472999999997, 186.023775 283.46479999999997, 186.023775 283.46479999999997, 207.283635 294.09472999999997, 207.283635 294.09472999999997, 236.5159425 283.46479999999997, 236.5159425 283.4648, 265.74825 257.7758025, 265.74825 257.7758025, 255.11831999999998 221.456875, 255.11831999999998 221.456875, 265.74825 200.197015, 265.74825 200.197015, 255.11831999999998 178.93715500000002, 255.11831999999998 178.93715500000002, 265.74825 157.67729500000002, 265.74825 157.67729500000002, 255.11831999999998 136.417435, 255.11831999999998 136.417435, 265.74825 115.15757500000001, 265.74825 115.15757500000001, 255.11831999999998 93.897715, 255.11831999999998 93.897715, 265.74825 72.637855, 265.74825 72.637855, 255.11831999999998 36.3189275, 255.11831999999998 36.3189275, 265.74825 10.62993, 265.74825 10.62993, 236.5159425 0, 236.5159425 0, 207.283635 10.62993, 207.283635 10.62993, 186.023775 0, 186.023775 0, 164.763915 10.62993, 164.763915 10.62993, 143.504055 0, 143.504055 0, 122.24419499999999 10.62993, 122.24419499999999 10.62993, 100.984335 0, 100.984335 0, 79.724475 10.62993, 79.724475 10.62993, 58.464615 0, 58.464615 0, 29.2323075 10.62993, 29.2323075 "/> 
</g>
<!-- Right--> 
<g transform="translate(646.1225784999999, 288.2482685) " > 
<polygon style="stroke:#000000; fill:none; stroke-width:0.90000074" points="10.62993, 0 36.3189275, 0 36.3189275, 10.62993 72.637855, 10.62993 72.637855, 0 93.897715, 0 93.897715, 10.62993 115.15757500000001, 10.62993 115.15757500000001, 0 136.417435, 0 136.417435, 10.62993 157.67729500000002, 10.62993 157.67729500000002, 0 178.93715500000002, 0 178.93715500000002, 10.62993 200.197015, 10.62993 200.197015, 0 221.456875, 0 221.456875, 10.62993 257.7758025, 10.62993 257.7758025, 0 283.46479999999997, 0 283.46479999999997, 29.2323075 294.09472999999997, 29.2323075 294.09472999999997, 58.464615 283.46479999999997, 58.464615 283.46479999999997, 79.724475 294.09472999999997, 79.724475 294.09472999999997, 100.984335 283.46479999999997, 100.984335 283.46479999999997, 122.24419499999999 294.09472999999997, 122.24419499999999 294.09472999999997, 143.504055 283.46479999999997, 143.504055 283.46479999999997, 164.763915 294.09472999999997, 164.763915 294.09472999999997, 186.023775 283.46479999999997, 186.023775 283.46479999999997, 207.283635 294.09472999999997, 207.283635 294.09472999999997, 236.5159425 283.46479999999997, 236.5159425 283.4648, 265.74825 257.7758025, 265.74825 257.7758025, 255.11831999999998 221.456875, 255.11831999999998 221.456875, 265.74825 200.197015, 265.74825 200.197015, 255.11831999999998 178.93715500000002, 255.11831999999998 178.93715500000002, 265.74825 157.67729500000002, 265.74825 157.67729500000002, 255.11831999999998 136.417435, 255.11831999999998 136.417435, 265.74825 115.15757500000001, 265.74825 115.15757500000001, 255.11831999999998 93.897715, 255.11831999999998 93.897715, 265.74825 72.637855, 265.74825 72.637855, 255.11831999999998 36.3189275, 255.11831999999998 36.3189275, 265.74825 10.62993, 265.74825 10.62993, 236.5159425 0, 236.5159425 0, 207.283635 10.62993, 207.283635 10.62993, 186.023775 0, 186.023775 0, 164.763915 10.62993, 164.763915 10.62993, 143.504055 0, 143.504055 0, 122.24419499999999 10.62993, 122.24419499999999 10.62993, 100.984335 0, 100.984335 0, 79.724475 10.62993, 79.724475 10.62993, 58.464615 0, 58.464615 0, 29.2323075 10.62993, 29.2323075 "/> 
</g>
<!-- Top--> 
<g transform="translate(22.5000185, 288.2482685) " > 
<polygon style="stroke:#000000; fill:none; stroke-width:0.90000074" points="10.62993, 10.62993 30.118135, 10.62993 30.118135, 0 60.23627, 0 60.23627, 10.62993 81.49613, 10.62993 81.49613, 0 102.75599, 0 102.75599, 10.62993 124.01585, 10.62993 124.01585, 0 145.27571, 0 145.27571, 10.62993 166.53557, 10.62993 166.53557, 0 187.79542999999998, 0 187.79542999999998, 10.62993 209.05528999999999, 10.62993 209.05528999999999, 0 230.31515, 0 230.31515, 10.62993 251.57501, 10.62993 251.57501, 0 281.693145, 0 281.693145, 10.62993 301.18135, 10.62993 301.18135, 36.3189275 311.81128, 36.3189275 311.81128, 72.637855 301.18135, 72.637855 301.18135, 93.897715 311.81128, 93.897715 311.81128, 115.15757500000001 301.18135, 115.15757500000001 301.18135, 136.417435 311.81128, 136.417435 311.81128, 157.67729500000002 301.18135, 157.67729500000002 301.18135, 178.93715500000002 311.81128, 178.93715500000002 311.81128, 200.197015 301.18135, 200.197015 301.18135, 221.456875 311.81128, 221.456875 311.81128, 257.7758025 301.18135, 257.7758025 301.18135, 283.46479999999997 281.693145, 283.46479999999997 281.693145, 294.09472999999997 251.57501, 294.09472999999997 251.57501, 283.46479999999997 230.31515, 283.46479999999997 230.31515, 294.09472999999997 209.05528999999999, 294.09472999999997 209.05528999999999, 283.46479999999997 187.79542999999998, 283.46479999999997 187.79542999999998, 294.09472999999997 166.53557, 294.09472999999997 166.53557, 283.46479999999997 145.27571, 283.46479999999997 145.27571, 294.09472999999997 124.01585, 294.09472999999997 124.01585, 283.46479999999997 102.75599, 283.46479999999997 102.75599, 294.09472999999997 81.49613, 294.09472999999997 81.49613, 283.46479999999997 60.23627, 283.46479999999997 60.23627, 294.09472999999997 30.118135, 294.09472999999997 30.118135, 283.46479999999997 10.62993, 283.4648 10.62993, 257.7758025 0, 257.7758025 0, 221.456875 10.62993, 221.456875 10.62993, 200.197015 0, 200.197015 0, 178.93715500000002 10.62993, 178.93715500000002 10.62993, 157.67729500000002 0, 157.67729500000002 0, 136.417435 10.62993, 136.417435 10.62993, 115.15757500000001 0, 115.15757500000001 0, 93.897715 10.62993, 93.897715 10.62993, 72.637855 0, 72.637855 0, 36.3189275 10.62993, 36.3189275 "/> 
</g>
<!-- Bottom--> 
<g transform="translate(334.31129849999996, 288.2482685) " > 
<polygon style="stroke:#000000; fill:none; stroke-width:0.90000074" points="10.62993, 10.62993 30.118135, 10.62993 30.118135, 0 60.23627, 0 60.23627, 10.62993 81.49613, 10.62993 81.49613, 0 102.75599, 0 102.75599, 10.62993 124.01585, 10.62993 124.01585, 0 145.27571, 0 145.27571, 10.62993 166.53557, 10.62993 166.53557, 0 187.79542999999998, 0 187.79542999999998, 10.62993 209.05528999999999, 10.62993 209.05528999999999, 0 230.31515, 0 230.31515, 10.62993 251.57501, 10.62993 251.57501, 0 281.693145, 0 281.693145, 10.62993 301.18135, 10.62993 301.18135, 36.3189275 311.81128, 36.3189275 311.81128, 72.637855 301.18135, 72.637855 301.18135, 93.897715 311.81128, 93.897715 311.81128, 115.15757500000001 301.18135, 115.15757500000001 301.18135, 136.417435 311.81128, 136.417435 311.81128, 157.67729500000002 301.18135, 157.67729500000002 301.18135, 178.93715500000002 311.81128, 178.93715500000002 311.81128, 200.197015 301.18135, 200.197015 301.18135, 221.456875 311.81128, 221.456875 311.81128, 257.7758025 301.18135, 257.7758025 301.18135, 283.46479999999997 281.693145, 283.46479999999997 281.693145, 294.09472999999997 251.57501, 294.09472999999997 251.57501, 283.46479999999997 230.31515, 283.46479999999997 230.31515, 294.09472999999997 209.05528999999999, 294.09472999999997 209.05528999999999, 283.46479999999997 187.79542999999998, 283.46479999999997 187.79542999999998, 294.09472999999997 166.53557, 294.09472999999997 166.53557, 283.46479999999997 145.27571, 283.46479999999997 145.27571, 294.09472999999997 124.01585, 294.09472999999997 124.01585, 283.46479999999997 102.75599, 283.46479999999997 102.75599, 294.09472999999997 81.49613, 294.09472999999997 81.49613, 283.46479999999997 60.23627, 283.46479999999997 60.23627, 294.09472999999997 30.118135, 294.09472999999997 30.118135, 283.46479999999997 10.62993, 283.4648 10.62993, 257.7758025 0, 257.7758025 0, 221.456875 10.62993, 221.456875 10.62993, 200.197015 0, 200.197015 0, 178.93715500000002 10.62993, 178.93715500000002 10.62993, 157.67729500000002 0, 157.67729500000002 0, 136.417435 10.62993, 136.417435 10.62993, 115.15757500000001 0, 115.15757500000001 0, 93.897715 10.62993, 93.897715 10.62993, 72.637855 0, 72.637855 0, 36.3189275 10.62993, 36.3189275 "/> 
</g></svg>