<svg xmlns="http://www.w3.org/2000/svg" version="1.1" width="271.7mm" height="170.7mm" viewBox = " 0 0 962.717327 604.8430169999999" >
<!-- Front--> 
<g transform="translate(22.5000185, 22.5000185) " > 
<polygon style="stroke:#000000; fill:none; stroke-width:0.0354331" points="0, 0 30.472465999999997, 0 30.472465999999997, 10.62993 60.23627, 10.62993 60.23627, 0 81.850461, 0 81.850461, 10.62993 102.75599, 10.62993 102.75599, 0 124.370181, 0 124.370181, 10.62993 145.27571, 10.62993 145.27571, 0 166.889901, 0 166.889901, 10.62993 187.79542999999998, 10.62993 187.79542999999998, 0 209.409621, 0 209.409621, 10.62993 230.31515, 10.62993 230.31515, 0 251.929341, 0 251.929341, 10.62993 281.693145, 10.62993 281.693145, 0 312.16561099999996, 0 312.16561099999996, 29.5866385 301.53568099999995, 29.5866385 301.53568099999995, 58.464615 312.16561099999996, 58.464615 312.16561099999996, 80.078806 301.53568099999995, 80.078806 301.53568099999995, 100.984335 312.16561099999996, 100.984335 312.16561099999996, 122.59852599999999 301.53568099999995, 122.59852599999999 301.53568099999995, 143.504055 312.16561099999996, 143.504055 312.16561099999996, 165.118246 301.53568099999995, 165.118246 301.53568099999995, 186.023775 312.16561099999996, 186.023775 312.16561099999996, 207.637966 301.53568099999995, 207.637966 301.53568099999995, 236.5159425 312.16561099999996, 236.5159425 312.165611, 266.102581 281.693145, 266.102581 281.693145, 255.47265099999998 251.929341, 255.47265099999998 251.929341, 266.102581 230.31515, 266.102581 230.31515, 255.47265099999998 209.409621, 255.47265099999998 209.409621, 266.102581 187.79542999999998, 266.102581 187.79542999999998, 255.47265099999998 166.889901, 255.47265099999998 166.889901, 266.102581 145.27571, 266.102581 145.27571, 255.47265099999998 124.370181, 255.47265099999998 124.370181, 266.102581 102.75599, 266.102581 102.75599, 255.47265099999998 81.850461, 255.47265099999998 81.850461, 266.102581 60.23627, 266.102581 60.23627, 255.47265099999998 30.472465999999997, 255.47265099999998 30.472465999999997, 266.102581 0, 266.102581 0, 236.5159425 10.62993, 236.5159425 10.62993, 207.637966 0, 207.637966 0, 186.023775 10.62993, 186.023775 10.62993, 165.118246 0, 165.118246 0, 143.504055 10.62993, 143.504055 10.62993, 122.59852599999999 0, 122.59852599999999 0, 100.984335 10.62993, 100.984335 10.62993, 80.078806 0, 80.078806 0, 58.464615 10.62993, 58.464615 10.62993, 29.5866385 0, 29.5866385 "/> 
</g>
<!-- Back--> 
<g transform="translate(334.66562949999997, 22.5000185) " > 
<polygon style="stroke:#000000; fill:none; stroke-width:0.0354331" points="0, 0 30.472465999999997, 0 30.472465999999997, 10.62993 60.23627, 10.62993 60.23627, 0 81.850461, 0 81.850461, 10.62993 102.75599, 10.62993 102.75599, 0 124.370181, 0 124.370181, 10.62993 145.27571, 10.62993 145.27571, 0 166.889901, 0 166.889901, 10.62993 187.79542999999998, 10.62993 187.79542999999998, 0 209.409621, 0 209.409621, 10.62993 230.31515, 10.62993 230.31515, 0 251.929341, 0 251.929341, 10.62993 281.693145, 10.62993 281.693145, 0 312.16561099999996, 0 312.16561099999996, 29.5866385 301.53568099999995, 29.5866385 301.53568099999995, 58.464615 312.16561099999996, 58.464615 312.16561099999996, 80.078806 301.53568099999995, 80.078806 301.53568099999995, 100.984335 312.16561099999996, 100.984335 312.16561099999996, 122.59852599999999 301.53568099999995, 122.59852599999999 301.53568099999995, 143.504055 312.16561099999996, 143.504055 312.16561099999996, 165.118246 301.53568099999995, 165.118246 301.53568099999995, 186.023775 312.16561099999996, 186.023775 312.16561099999996, 207.637966 301.53568099999995, 207.637966 301.53568099999995, 236.5159425 312.16561099999996, 236.5159425 312.165611, 266.102581 281.693145, 266.102581 281.693145, 255.47265099999998 251.929341, 255.47265099999998 251.929341, 266.102581 230.31515, 266.102581 230.31515, 255.47265099999998 209.409621, 255.47265099999998 209.409621, 266.102581 187.79542999999998, 266.102581 187.79542999999998, 255.47265099999998 166.889901, 255.47265099999998 166.889901, 266.102581 145.27571, 266.102581 145.27571, 255.47265099999998 124.370181, 255.47265099999998 124.370181, 266.102581 102.75599, 266.102581 102.75599, 255.47265099999998 81.850461, 255.47265099999998 81.850461, 266.102581 60.23627, 266.102581 60.23627, 255.47265099999998 30.472465999999997, 255.47265099999998 30.472465999999997, 266.102581 0, 266.102581 0, 236.5159425 10.62993, 236.5159425 10.62993, 207.637966 0, 207.637966 0, 186.023775 10.62993, 186.023775 10.62993, 165.118246 0, 165.118246 0, 143.504055 10.62993, 143.504055 10.62993, 122.59852599999999 0, 122.59852599999999 0, 100.984335 10.62993, 100.984335 10.62993, 80.078806 0, 80.078806 0, 58.464615 10.62993, 58.464615 10.62993, 29.5866385 0, 29.5866385 "/> 
</g>
<!-- Left--> 
<g transform="translate(646.8312404999999, 22.5000185) " > 
<polygon style="stroke:#000000; fill:none; stroke-width:0.0354331" points="10.62993, 0 36.6732585, 0 36.6732585, 10.62993 72.637855, 10.62993 72.637855, 0 94.252046, 0 94.252046, 10.62993 115.15757500000001, 10.62993 115.15757500000001, 0 136.771766, 0 136.771766, 10.62993 157.67729500000002, 10.62993 157.67729500000002, 0 179.29148600000002, 0 179.29148600000002, 10.62993 200.197015, 10.62993 200.197015, 0 221.811206, 0 221.811206, 10.62993 257.7758025, 10.62993 257.7758025, 0 283.81913099999997, 0 283.81913099999997, 29.2323075 294.449061, 29.2323075 294.449061, 58.818946000000004 283.81913099999997, 58.818946000000004 283.81913099999997, 79.724475 294.449061, 79.724475 294.449061, 101.338666 283.81913099999997, 101.338666 283.81913099999997, 122.24419499999999 294.449061, 122.24419499999999 294.449061, 143.858386 283.81913099999997, 143.858386 283.81913099999997, 164.763915 294.449061, 164.763915 294.449061, 186.378106 283.81913099999997, 186.378106 283.81913099999997, 207.283635 294.449061, 207.283635 294.449061, 236.8702735 283.81913099999997, 236.8702735 283.819131, 266.102581 257.7758025, 266.102581 257.7758025, 255.47265099999998 221.811206, 255.47265099999998 221.811206, 266.102581 200.197015, 266.102581 200.197015, 255.47265099999998 179.29148600000002, 255.47265099999998 179.29148600000002, 266.102581 157.67729500000002, 266.102581 157.67729500000002, 255.47265099999998 136.771766, 255.47265099999998 136.771766, 266.102581 115.15757500000001, 266.102581 115.15757500000001, 255.47265099999998 94.252046, 255.47265099999998 94.252046, 266.102581 72.637855, 266.102581 72.637855, 255.47265099999998 36.6732585, 255.47265099999998 36.6732585, 266.102581 10.62993, 266.102581 10.62993, 236.8702735 0, 236.8702735 0, 207.283635 10.62993, 207.283635 10.62993, 186.378106 0, 186.378106 0, 164.763915 10.62993, 164.763915 10.62993, 143.858386 0, 143.858386 0, 122.24419499999999 10.62993, 122.24419499999999 10.62993, 101.338666 0, 101.338666 0, 79.724475 10.62993, 79.724475 10.62993, 58.818946000000004 0, 58.818946000000004 0, 29.2323075 10.62993, 29.2323075 "/> 
</g>
<!-- Right--> 
<g transform="translate(646.8312404999999, 288.60259949999994) " > 
<polygon style="stroke:#000000; fill:none; stroke-width:0.0354331" points="10.62993, 0 36.6732585, 0 36.6732585, 10.62993 72.637855, 10.62993 72.637855, 0 94.252046, 0 94.252046, 10.62993 115.15757500000001, 10.62993 115.15757500000001, 0 136.771766, 0 136.771766, 10.62993 157.67729500000002, 10.62993 157.67729500000002, 0 179.29148600000002, 0 179.29148600000002, 10.62993 200.197015, 10.62993 200.197015, 0 221.811206, 0 221.811206, 10.62993 257.7758025, 10.62993 257.7758025, 0 283.81913099999997, 0 283.81913099999997, 29.2323075 294.449061, 29.2323075 294.449061, 58.818946000000004 283.81913099999997, 58.818946000000004 283.81913099999997, 79.724475 294.449061, 79.724475 294.449061, 101.338666 283.81913099999997, 101.338666 283.81913099999997, 122.24419499999999 294.449061, 122.24419499999999 294.449061, 143.858386 283.81913099999997, 143.858386 283.81913099999997, 164.763915 294.449061, 164.763915 294.449061, 186.378106 283.81913099999997, 186.378106 283.81913099999997, 207.283635 294.449061, 207.283635 294.449061, 236.8702735 283.81913099999997, 236.8702735 283.819131, 266.102581 257.7758025, 266.102581 257.7758025, 255.47265099999998 221.811206, 255.47265099999998 221.811206, 266.102581 200.197015, 266.102581 200.197015, 255.47265099999998 179.29148600000002, 255.47265099999998 179.29148600000002, 266.102581 157.67729500000002, 266.102581 157.67729500000002, 255.47265099999998 136.771766, 255.47265099999998 136.771766, 266.102581 115.15757500000001, 266.102581 115.15757500000001, 255.47265099999998 94.252046, 255.47265099999998 94.252046, 266.102581 72.637855, 266.102581 72.637855, 255.47265099999998 36.6732585, 255.47265099999998 36.6732585, 266.102581 10.62993, 266.102581 10.62993, 236.8702735 0, 236.8702735 0, 207.283635 10.62993, 207.283635 10.62993, 186.378106 0, 186.378106 0, 164.763915 10.62993, 164.763915 10.62993, 143.858386 0, 143.858386 0, 122.24419499999999 10.62993, 122.24419499999999 10.62993, 101.338666 0, 101.338666 0, 79.724475 10.62993, 79.724475 10.62993, 58.818946000000004 0, 58.818946000000004 0, 29.2323075 10.62993, 29.2323075 "/> 
</g>
<!-- Top--> 
<g transform="translate(22.5000185, 288.60259949999994) " > 
<polygon style="stroke:#000000; fill:none; stroke-width:0.0354331" points="10.62993, 10.62993 30.118135, 10.62993 30.118135, 0 60.590601, 0 60.590601, 10.62993 81.49613, 10.62993 81.49613, 0 103.110321, 0 103.110321, 10.62993 124.01585, 10.62993 124.01585, 0 145.630041, 0 145.630041, 10.62993 166.53557, 10.62993 166.53557, 0 188.14976099999998, 0 188.14976099999998, 10.62993 209.05528999999999, 10.62993 209.05528999999999, 0 230.669481, 0 230.669481, 10.62993 251.57501, 10.62993 251.57501, 0 282.047476, 0 282.047476, 10.62993 301.53568099999995, 10.62993 301.53568099999995, 36.3189275 312.16561099999996, 36.3189275 312.16561099999996, 72.992186 301.53568099999995, 72.992186 301.53568099999995, 93.897715 312.16561099999996, 93.897715 312.16561099999996, 115.51190600000001 301.53568099999995, 115.51190600000001 301.53568099999995, 136.417435 312.16561099999996, 136.417435 312.16561099999996, 158.03162600000002 301.53568099999995, 158.03162600000002 301.53568099999995, 178.93715500000002 312.16561099999996, 178.93715500000002 312.16561099999996, 200.551346 301.53568099999995, 200.551346 301.53568099999995, 221.456875 312.16561099999996, 221.456875 312.16561099999996, 258.1301335 301.53568099999995, 258.1301335 301.535681, 283.81913099999997 282.047476, 283.81913099999997 282.047476, 294.449061 251.57501, 294.449061 251.57501, 283.81913099999997 230.669481, 283.81913099999997 230.669481, 294.449061 209.05528999999999, 294.449061 209.05528999999999, 283.81913099999997 188.14976099999998, 283.81913099999997 188.14976099999998, 294.449061 166.53557, 294.449061 166.53557, 283.81913099999997 145.630041, 283.81913099999997 145.630041, 294.449061 124.01585, 294.449061 124.01585, 283.81913099999997 103.110321, 283.81913099999997 103.110321, 294.449061 81.49613, 294.449061 81.49613, 283.81913099999997 60.590601, 283.81913099999997 60.590601, 294.449061 30.118135, 294.449061 30.118135, 283.81913099999997 10.62993, 283.819131 10.62993, 258.1301335 0, 258.1301335 0, 221.456875 10.62993, 221.456875 10.62993, 200.551346 0, 200.551346 0, 178.93715500000002 10.62993, 178.93715500000002 10.62993, 158.03162600000002 0, 158.03162600000002 0, 136.417435 10.62993, 136.417435 10.62993, 115.51190600000001 0, 115.51190600000001 0, 93.897715 10.62993, 93.897715 10.62993, 72.992186 0, 72.992186 0, 36.3189275 10.62993, 36.3189275 "/> 
</g>
<!-- Bottom--> 
<g transform="translate(334.66562949999997, 288.60259949999994) " > 
<polygon style="stroke:#000000; fill:none; stroke-width:0.0354331" points="10.62993, 10.62993 30.118135, 10.62993 30.118135, 0 60.590601, 0 60.590601, 10.62993 81.49613, 10.62993 81.49613, 0 103.110321, 0 103.110321, 10.62993 124.01585, 10.62993 124.01585, 0 145.630041, 0 145.630041, 10.62993 166.53557, 10.62993 166.53557, 0 188.14976099999998, 0 188.14976099999998, 10.62993 209.05528999999999, 10.62993 209.05528999999999, 0 230.669481, 0 230.669481, 10.62993 251.57501, 10.62993 251.57501, 0 282.047476, 0 282.047476, 10.62993 301.53568099999995, 10.62993 301.53568099999995, 36.3189275 312.16561099999996, 36.3189275 312.16561099999996, 72.992186 301.53568099999995, 72.992186 301.53568099999995, 93.897715 312.16561099999996, 93.897715 312.16561099999996, 115.51190600000001 301.53568099999995, 115.51190600000001 301.53568099999995, 136.417435 312.16561099999996, 136.417435 312.16561099999996, 158.03162600000002 301.53568099999995, 158.03162600000002 301.53568099999995, 178.93715500000002 312.16561099999996, 178.93715500000002 312.16561099999996, 200.551346 301.53568099999995, 200.551346 301.53568099999995, 221.456875 312.16561099999996, 221.456875 312.16561099999996, 258.1301335 301.53568099999995, 258.1301335 301.535681, 283.81913099999997 282.047476, 283.81913099999997 282.047476, 294.449061 251.57501, 294.449061 251.57501, 283.81913099999997 230.669481, 283.81913099999997 230.669481, 294.449061 209.05528999999999, 294.449061 209.05528999999999, 283.81913099999997 188.14976099999998, 283.81913099999997 188.14976099999998, 294.449061 166.53557, 294.449061 166.53557, 283.81913099999997 145.630041, 283.81913099999997 145.630041, 294.449061 124.01585, 294.449061 124.01585, 283.81913099999997 103.110321, 283.81913099999997 103.110321, 294.449061 81.49613, 294.449061 81.49613, 283.81913099999997 60.590601, 283.81913099999997 60.590601, 294.449061 30.118135, 294.449061 30.118135, 283.81913099999997 10.62993, 283.819131 10.62993, 258.1301335 0, 258.1301335 0, 221.456875 10.62993, 221.456875 10.62993, 200.551346 0, 200.551346 0, 178.93715500000002 10.62993, 178.93715500000002 10.62993, 158.03162600000002 0, 158.03162600000002 0, 136.417435 10.62993, 136.417435 10.62993, 115.51190600000001 0, 115.51190600000001 0, 93.897715 10.62993, 93.897715 10.62993, 72.992186 0, 72.992186 0, 36.3189275 10.62993, 36.3189275 "/> 
</g></svg>