<svg xmlns="http://www.w3.org/2000/svg" version="1.1" width="271.7mm" height="170.7mm" viewBox = " 0 0 962.717327 604.8430169999999" >
<!-- Front--> 
<g transform="translate(22.5000185, 22.5000185) " > 
<polygon style="stroke:#000000; fill:none; stroke-width:0.90000074" points="0, 0 42.874051, 0 42.874051, 14.17324 85.03944, 14.17324 85.03944, 0 113.740251, 0 113.740251, 14.17324 141.73239999999998, 14.17324 141.73239999999998, 0 170.433211, 0 170.433211, 14.17324 198.42536, 14.17324 198.42536, 0 227.126171, 0 227.126171, 14.17324 269.29156, 14.17324 269.29156, 0 312.16561099999996, 0 312.16561099999996, 45.5315335 297.99237099999993, 45.5315335 297.99237099999993, 90.354405 312.16561099999996, 90.354405 312.16561099999996, 119.055216 297.99237099999993, 119.055216 297.99237099999993, 147.047365 312.16561099999996, 147.047365 312.16561099999996, 175.748176 297.99237099999993, 175.748176 297.99237099999993, 220.57104750000002 312.16561099999996, 220.57104750000002 312.165611, 266.102581 269.29156, 266.102581 269.29156, 251.929341 227.126171, 251.929341 227.126171, 266.102581 198.42536, 266.102581 198.42536, 251.929341 170.433211, 251.929341 170.433211, 266.102581 141.73239999999998, 266.102581 141.73239999999998, 251.929341 113.740251, 251.929341 113.740251, 266.102581 85.03944, 266.102581 85.03944, 251.929341 42.874051, 251.929341 42.874051, 266.102581 0, 266.102581 0, 220.57104750000002 14.17324, 220.57104750000002 14.17324, 175.748176 0, 175.748176 0, 147.047365 14.17324, 147.047365 14.17324, 119.055216 0, 119.055216 0, 90.354405 14.17324, 90.354405 14.17324, 45.5315335 0, 45.5315335 "/> 
</g>
<!-- Back--> 
<g transform="translate(334.66562949999997, 22.5000185) " > 
<polygon style="stroke:#000000; fill:none; stroke-width:0.90000074" points="0, 0 42.874051, 0 42.874051, 14.17324 85.03944, 14.17324 85.03944, 0 113.740251, 0 113.740251, 14.17324 141.73239999999998, 14.17324 141.73239999999998, 0 170.433211, 0 170.433211, 14.17324 198.42536, 14.17324 198.42536, 0 227.126171, 0 227.126171, 14.17324 269.29156, 14.17324 269.29156, 0 312.16561099999996, 0 312.16561099999996, 45.5315335 297.99237099999993, 45.5315335 297.99237099999993, 90.354405 312.16561099999996, 90.354405 312.16561099999996, 119.055216 297.99237099999993, 119.055216 297.99237099999993, 147.047365 312.16561099999996, 147.047365 312.16561099999996, 175.748176 297.99237099999993, 175.748176 297.99237099999993, 220.57104750000002 312.16561099999996, 220.57104750000002 312.165611, 266.102581 269.29156, 266.102581 269.29156, 251.929341 227.126171, 251.929341 227.126171, 266.102581 198.42536, 266.102581 198.42536, 251.929341 170.433211, 251.929341 170.433211, 266.102581 141.73239999999998, 266.102581 141.73239999999998, 251.929341 113.740251, 251.929341 113.740251, 266.102581 85.03944, 266.102581 85.03944, 251.929341 42.874051, 251.929341 42.874051, 266.102581 0, 266.102581 0, 220.57104750000002 14.17324, 220.57104750000002 14.17324, 175.748176 0, 175.748176 0, 147.047365 14.17324, 147.047365 14.17324, 119.055216 0, 119.055216 0, 90.354405 14.17324, 90.354405 14.17324, 45.5315335 0, 45.5315335 "/> 
</g>
<!-- Left--> 
<g transform="translate(646.8312404999999, 22.5000185) " > 
<polygon style="stroke:#000000; fill:none; stroke-width:0.90000074" points="14.17324, 0 38.4449135, 0 38.4449135, 14.17324 76.181165, 14.17324 76.181165, 0 104.881976, 0 104.881976, 14.17324 132.874125, 14.17324 132.874125, 0 161.57493599999998, 0 161.57493599999998, 14.17324 189.567085, 14.17324 189.567085, 0 218.26789599999998, 0 218.26789599999998, 14.17324 256.0041475, 14.17324 256.0041475, 0 280.27582099999995, 0 280.27582099999995, 45.1772025 294.449061, 45.1772025 294.449061, 90.708736 280.27582099999995, 90.708736 280.27582099999995, 118.700885 294.449061, 118.700885 294.449061, 147.40169600000002 280.27582099999995, 147.40169600000002 280.27582099999995, 175.393845 294.449061, 175.393845 294.449061, 220.92537850000002 280.27582099999995, 220.92537850000002 280.27582099999995, 266.102581 256.0041475, 266.102581 256.0041475, 251.929341 218.26789599999998, 251.929341 218.26789599999998, 266.102581 189.567085, 266.102581 189.567085, 251.929341 161.57493599999998, 251.929341 161.57493599999998, 266.102581 132.874125, 266.102581 132.874125, 251.929341 104.881976, 251.929341 104.881976, 266.102581 76.181165, 266.102581 76.181165, 251.929341 38.4449135, 251.929341 38.4449135, 266.102581 14.17324, 266.102581 14.17324, 220.92537850000002 0, 220.92537850000002 0, 175.393845 14.17324, 175.393845 14.17324, 147.40169600000002 0, 147.40169600000002 0, 118.700885 14.17324, 118.700885 14.17324, 90.708736 0, 90.708736 0, 45.1772025 14.17324, 45.1772025 "/> 
</g>
<!-- Right--> 
<g transform="translate(646.8312404999999, 288.60259949999994) " > 
<polygon style="stroke:#000000; fill:none; stroke-width:0.90000074" points="14.17324, 0 38.4449135, 0 38.4449135, 14.17324 76.181165, 14.17324 76.181165, 0 104.881976, 0 104.881976, 14.17324 132.874125, 14.17324 132.874125, 0 161.57493599999998, 0 161.57493599999998, 14.17324 189.567085, 14.17324 189.567085, 0 218.26789599999998, 0 218.26789599999998, 14.17324 256.0041475, 14.17324 256.0041475, 0 280.27582099999995, 0 280.27582099999995, 45.1772025 294.449061, 45.1772025 294.449061, 90.708736 280.27582099999995, 90.708736 280.27582099999995, 118.700885 294.449061, 118.700885 294.449061, 147.40169600000002 280.27582099999995, 147.40169600000002 280.27582099999995, 175.393845 294.449061, 175.393845 294.449061, 220.92537850000002 280.27582099999995, 220.92537850000002 280.27582099999995, 266.102581 256.0041475, 266.102581 256.0041475, 251.929341 218.26789599999998, 251.929341 218.26789599999998, 266.102581 189.567085, 266.102581 189.567085, 251.929341 161.57493599999998, 251.929341 161.57493599999998, 266.102581 132.874125, 266.102581 132.874125, 251.929341 104.881976, 251.929341 104.881976, 266.102581 76.181165, 266.102581 76.181165, 251.929341 38.4449135, 251.929341 38.4449135, 266.102581 14.17324, 266.102581 14.17324, 220.92537850000002 0, 220.92537850000002 0, 175.393845 14.17324, 175.393845 14.17324, 147.40169600000002 0, 147.40169600000002 0, 118.700885 14.17324, 118.700885 14.17324, 90.708736 0, 90.708736 0, 45.1772025 14.17324, 45.1772025 "/> 
</g>
<!-- Top--> 
<g transform="translate(22.5000185, 288.60259949999994) " > 
<polygon style="stroke:#000000; fill:none; stroke-width:0.90000074" points="14.17324, 14.17324 42.51972, 14.17324 42.51972, 0 85.393771, 0 85.393771, 14.17324 113.38592, 14.17324 113.38592, 0 142.086731, 0 142.086731, 14.17324 170.07888, 14.17324 170.07888, 0 198.779691, 0 198.779691, 14.17324 226.77184, 14.17324 226.77184, 0 269.645891, 0 269.645891, 14.17324 297.99237099999993, 14.17324 297.99237099999993, 38.0905825 312.16561099999996, 38.0905825 312.16561099999996, 76.535496 297.99237099999993, 76.535496 297.99237099999993, 104.52764499999999 312.16561099999996, 104.52764499999999 312.16561099999996, 133.228456 297.99237099999993, 133.228456 297.99237099999993, 161.22060499999998 312.16561099999996, 161.22060499999998 312.16561099999996, 189.921416 297.99237099999993, 189.921416 297.99237099999993, 217.91356499999998 312.16561099999996, 217.91356499999998 312.16561099999996, 256.3584785 297.99237099999993, 256.3584785 297.992371, 280.27582099999995 269.645891, 280.27582099999995 269.645891, 294.449061 226.77184, 294.449061 226.77184, 280.27582099999995 198.779691, 280.27582099999995 198.779691, 294.449061 170.07888, 294.449061 170.07888, 280.27582099999995 142.086731, 280.27582099999995 142.086731, 294.449061 113.38592, 294.449061 113.38592, 280.27582099999995 85.393771, 280.27582099999995 85.393771, 294.449061 42.51972, 294.449061 42.51972, 280.27582099999995 14.17324, 280.27582099999995 14.17324, 256.3584785 0, 256.3584785 0, 217.91356499999998 14.17324, 217.91356499999998 14.17324, 189.921416 0, 189.921416 0, 161.22060499999998 14.17324, 161.22060499999998 14.17324, 133.228456 0, 133.228456 0, 104.52764499999999 14.17324, 104.52764499999999 14.17324, 76.535496 0, 76.535496 0, 38.0905825 14.17324, 38.0905825 "/> 
</g>
<!-- Bottom--> 
<g transform="translate(334.66562949999997, 288.60259949999994) " > 
<polygon style="stroke:#000000; fill:none; stroke-width:0.90000074" points="14.17324, 14.17324 42.51972, 14.17324 42.51972, 0 85.393771, 0 85.393771, 14.17324 113.38592, 14.17324 113.38592, 0 142.086731, 0 142.086731, 14.17324 170.07888, 14.17324 170.07888, 0 198.779691, 0 198.779691, 14.17324 226.77184, 14.17324 226.77184, 0 269.645891, 0 269.645891, 14.17324 297.99237099999993, 14.17324 297.99237099999993, 38.0905825 312.16561099999996, 38.0905825 312.16561099999996, 76.535496 297.99237099999993, 76.535496 297.99237099999993, 104.52764499999999 312.16561099999996, 104.52764499999999 312.16561099999996, 133.228456 297.99237099999993, 133.228456 297.99237099999993, 161.22060499999998 312.16561099999996, 161.22060499999998 312.16561099999996, 189.921416 297.99237099999993, 189.921416 297.99237099999993, 217.91356499999998 312.16561099999996, 217.91356499999998 312.16561099999996, 256.3584785 297.99237099999993, 256.3584785 297.992371, 280.27582099999995 269.645891, 280.27582099999995 269.645891, 294.449061 226.77184, 294.449061 226.77184, 280.27582099999995 198.779691, 280.27582099999995 198.779691, 294.449061 170.07888, 294.449061 170.07888, 280.27582099999995 142.086731, 280.27582099999995 142.086731, 294.449061 113.38592, 294.449061 113.38592, 280.27582099999995 85.393771, 280.27582099999995 85.393771, 294.449061 42.51972, 294.449061 42.51972, 280.27582099999995 14.17324, 280.27582099999995 14.17324, 256.3584785 0, 256.3584785 0, 217.91356499999998 14.17324, 217.91356499999998 14.17324, 189.921416 0, 189.921416 0, 161.22060499999998 14.17324, 161.22060499999998 14.17324, 133.228456 0, 133.228456 0, 104.52764499999999 14.17324, 104.52764499999999 14.17324, 76.535496 0, 76.535496 0, 38.0905825 14.17324, 38.0905825 "/> 
</g></svg>